# xmcd
#
# Track frame offsets: 
#        150
#        26560
#        55898
#        81839
#        122811
#        149170
#        169616
#        196063
#        234433
#
# Disc length: 3247 seconds
#
# Revision: 0
# Processed by: cddbd v1.5.2PL0 Copyright (c) Steve Scherf et al.
# Submitted via: ExactAudioCopy v0.99pb5
#
DISCID=770cad09
DTITLE=Sooäär - Vaigla - Ruben - NO99 Jazzklubis
DYEAR=2007
DGENRE=Jazz
TTITLE0=Pipi laul
TTITLE1=Happy end
TTITLE2=Silver hollow
TTITLE3=Türgi rahvalaul
TTITLE4=Pistoda laul
TTITLE5=Rainy Summer
TTITLE6=Central Park West
TTITLE7=Mis värvi on armastus
TTITLE8=Somewhere
EXTD=
EXTT0=
EXTT1=
EXTT2=
EXTT3=
EXTT4=
EXTT5=
EXTT6=
EXTT7=
EXTT8=
PLAYORDER=
